<mxfile host="app.diagrams.net" modified="2023-07-05T05:44:03.638Z" agent="Mozilla/5.0 (Macintosh; Intel Mac OS X 10_15_7) AppleWebKit/537.36 (KHTML, like Gecko) Chrome/114.0.0.0 Safari/537.36" etag="EVk0FaUu-vlf2VsYNgwn" version="21.5.2" type="github">
  <diagram name="Page-1" id="-RpIPuz9YmKVfhQ-e5wv">
    <mxGraphModel dx="882" dy="1131" grid="1" gridSize="10" guides="1" tooltips="1" connect="1" arrows="1" fold="1" page="1" pageScale="1" pageWidth="827" pageHeight="1169" math="0" shadow="0">
      <root>
        <mxCell id="0" />
        <mxCell id="1" parent="0" />
        <mxCell id="BhB_OIrB13sOwprm3m46-2" value="" style="rounded=0;whiteSpace=wrap;html=1;sketch=1;hachureGap=4;jiggle=2;curveFitting=1;fontFamily=Architects Daughter;fontSource=https%3A%2F%2Ffonts.googleapis.com%2Fcss%3Ffamily%3DArchitects%2BDaughter;fontSize=20;strokeColor=#CC99FF;" parent="1" vertex="1">
          <mxGeometry x="225" y="630" width="555" height="210" as="geometry" />
        </mxCell>
        <mxCell id="BhB_OIrB13sOwprm3m46-3" value="" style="rounded=1;whiteSpace=wrap;html=1;sketch=1;curveFitting=1;jiggle=2;fillColor=#1ba1e2;fontColor=#ffffff;strokeColor=#006EAF;" parent="1" vertex="1">
          <mxGeometry x="382.5" y="760" width="240" height="60" as="geometry" />
        </mxCell>
        <mxCell id="BhB_OIrB13sOwprm3m46-4" value="LLM Chat Proxy" style="text;html=1;strokeColor=none;fillColor=none;align=center;verticalAlign=middle;whiteSpace=wrap;rounded=0;fontSize=20;fontFamily=Architects Daughter;" parent="1" vertex="1">
          <mxGeometry x="412.5" y="780" width="190" height="20" as="geometry" />
        </mxCell>
        <mxCell id="BhB_OIrB13sOwprm3m46-5" value="Powerdrill" style="text;html=1;strokeColor=none;fillColor=none;align=center;verticalAlign=middle;whiteSpace=wrap;rounded=0;fontSize=20;fontFamily=Architects Daughter;" parent="1" vertex="1">
          <mxGeometry x="260" y="640" width="60" height="30" as="geometry" />
        </mxCell>
        <mxCell id="BhB_OIrB13sOwprm3m46-6" value="" style="rounded=0;whiteSpace=wrap;html=1;sketch=1;hachureGap=4;jiggle=2;curveFitting=1;fontFamily=Architects Daughter;fontSource=https%3A%2F%2Ffonts.googleapis.com%2Fcss%3Ffamily%3DArchitects%2BDaughter;fontSize=20;strokeColor=#CCFFCC;dashed=1;dashPattern=8 8;" parent="1" vertex="1">
          <mxGeometry x="225" y="350" width="555" height="160" as="geometry" />
        </mxCell>
        <mxCell id="BhB_OIrB13sOwprm3m46-7" value="OpenAI Client Tools" style="text;html=1;strokeColor=none;fillColor=none;align=center;verticalAlign=middle;whiteSpace=wrap;rounded=0;fontSize=20;fontFamily=Architects Daughter;" parent="1" vertex="1">
          <mxGeometry x="225" y="360" width="226" height="30" as="geometry" />
        </mxCell>
        <mxCell id="YGRjid9swvJ--D3n12rC-10" style="rounded=0;sketch=1;hachureGap=4;jiggle=2;curveFitting=1;orthogonalLoop=1;jettySize=auto;html=1;entryX=0.5;entryY=0;entryDx=0;entryDy=0;fontFamily=Architects Daughter;fontSource=https%3A%2F%2Ffonts.googleapis.com%2Fcss%3Ffamily%3DArchitects%2BDaughter;fontSize=16;" edge="1" parent="1" source="BhB_OIrB13sOwprm3m46-8" target="YGRjid9swvJ--D3n12rC-7">
          <mxGeometry relative="1" as="geometry" />
        </mxCell>
        <mxCell id="BhB_OIrB13sOwprm3m46-8" value="" style="rounded=1;whiteSpace=wrap;html=1;sketch=1;curveFitting=1;jiggle=2;fillColor=#60a917;fontColor=#ffffff;strokeColor=#2D7600;" parent="1" vertex="1">
          <mxGeometry x="245" y="410" width="100" height="50" as="geometry" />
        </mxCell>
        <mxCell id="BhB_OIrB13sOwprm3m46-9" value="Tool" style="text;html=1;strokeColor=none;fillColor=none;align=center;verticalAlign=middle;whiteSpace=wrap;rounded=0;fontSize=20;fontFamily=Architects Daughter;" parent="1" vertex="1">
          <mxGeometry x="265" y="420" width="60" height="30" as="geometry" />
        </mxCell>
        <mxCell id="YGRjid9swvJ--D3n12rC-13" style="rounded=0;sketch=1;hachureGap=4;jiggle=2;curveFitting=1;orthogonalLoop=1;jettySize=auto;html=1;entryX=0.5;entryY=0;entryDx=0;entryDy=0;fontFamily=Architects Daughter;fontSource=https%3A%2F%2Ffonts.googleapis.com%2Fcss%3Ffamily%3DArchitects%2BDaughter;fontSize=16;" edge="1" parent="1" source="BhB_OIrB13sOwprm3m46-10" target="YGRjid9swvJ--D3n12rC-7">
          <mxGeometry relative="1" as="geometry" />
        </mxCell>
        <mxCell id="BhB_OIrB13sOwprm3m46-10" value="" style="rounded=1;whiteSpace=wrap;html=1;sketch=1;curveFitting=1;jiggle=2;fillColor=#60a917;fontColor=#ffffff;strokeColor=#2D7600;" parent="1" vertex="1">
          <mxGeometry x="364" y="410" width="100" height="50" as="geometry" />
        </mxCell>
        <mxCell id="BhB_OIrB13sOwprm3m46-11" value="Tool" style="text;html=1;strokeColor=none;fillColor=none;align=center;verticalAlign=middle;whiteSpace=wrap;rounded=0;fontSize=20;fontFamily=Architects Daughter;" parent="1" vertex="1">
          <mxGeometry x="384" y="420" width="60" height="30" as="geometry" />
        </mxCell>
        <mxCell id="BhB_OIrB13sOwprm3m46-12" value="" style="rounded=1;whiteSpace=wrap;html=1;sketch=1;curveFitting=1;jiggle=2;fillColor=#60a917;fontColor=#ffffff;strokeColor=#2D7600;" parent="1" vertex="1">
          <mxGeometry x="485" y="410" width="100" height="50" as="geometry" />
        </mxCell>
        <mxCell id="YGRjid9swvJ--D3n12rC-12" style="rounded=0;sketch=1;hachureGap=4;jiggle=2;curveFitting=1;orthogonalLoop=1;jettySize=auto;html=1;entryX=0.5;entryY=0;entryDx=0;entryDy=0;fontFamily=Architects Daughter;fontSource=https%3A%2F%2Ffonts.googleapis.com%2Fcss%3Ffamily%3DArchitects%2BDaughter;fontSize=16;exitX=0.5;exitY=1;exitDx=0;exitDy=0;" edge="1" parent="1" source="BhB_OIrB13sOwprm3m46-12" target="YGRjid9swvJ--D3n12rC-7">
          <mxGeometry relative="1" as="geometry" />
        </mxCell>
        <mxCell id="BhB_OIrB13sOwprm3m46-13" value="Tool" style="text;html=1;strokeColor=none;fillColor=none;align=center;verticalAlign=middle;whiteSpace=wrap;rounded=0;fontSize=20;fontFamily=Architects Daughter;" parent="1" vertex="1">
          <mxGeometry x="505" y="420" width="60" height="30" as="geometry" />
        </mxCell>
        <mxCell id="BhB_OIrB13sOwprm3m46-14" value="..." style="text;html=1;strokeColor=none;fillColor=none;align=center;verticalAlign=middle;whiteSpace=wrap;rounded=0;fontSize=20;fontFamily=Architects Daughter;" parent="1" vertex="1">
          <mxGeometry x="600" y="420" width="60" height="30" as="geometry" />
        </mxCell>
        <mxCell id="YGRjid9swvJ--D3n12rC-14" style="rounded=0;sketch=1;hachureGap=4;jiggle=2;curveFitting=1;orthogonalLoop=1;jettySize=auto;html=1;entryX=0.5;entryY=0;entryDx=0;entryDy=0;fontFamily=Architects Daughter;fontSource=https%3A%2F%2Ffonts.googleapis.com%2Fcss%3Ffamily%3DArchitects%2BDaughter;fontSize=16;exitX=0.5;exitY=1;exitDx=0;exitDy=0;" edge="1" parent="1" source="BhB_OIrB13sOwprm3m46-17" target="YGRjid9swvJ--D3n12rC-7">
          <mxGeometry relative="1" as="geometry" />
        </mxCell>
        <mxCell id="BhB_OIrB13sOwprm3m46-17" value="" style="rounded=1;whiteSpace=wrap;html=1;sketch=1;curveFitting=1;jiggle=2;fillColor=#60a917;fontColor=#ffffff;strokeColor=#2D7600;" parent="1" vertex="1">
          <mxGeometry x="660" y="410" width="100" height="50" as="geometry" />
        </mxCell>
        <mxCell id="BhB_OIrB13sOwprm3m46-21" style="edgeStyle=orthogonalEdgeStyle;rounded=0;sketch=1;hachureGap=4;jiggle=2;curveFitting=1;orthogonalLoop=1;jettySize=auto;html=1;entryX=0;entryY=0.5;entryDx=0;entryDy=0;fontFamily=Architects Daughter;fontSource=https%3A%2F%2Ffonts.googleapis.com%2Fcss%3Ffamily%3DArchitects%2BDaughter;fontSize=16;dashed=1;" parent="1" source="BhB_OIrB13sOwprm3m46-20" target="BhB_OIrB13sOwprm3m46-6" edge="1">
          <mxGeometry relative="1" as="geometry" />
        </mxCell>
        <mxCell id="BhB_OIrB13sOwprm3m46-22" style="edgeStyle=orthogonalEdgeStyle;rounded=0;sketch=1;hachureGap=4;jiggle=2;curveFitting=1;orthogonalLoop=1;jettySize=auto;html=1;entryX=0;entryY=0.5;entryDx=0;entryDy=0;fontFamily=Architects Daughter;fontSource=https%3A%2F%2Ffonts.googleapis.com%2Fcss%3Ffamily%3DArchitects%2BDaughter;fontSize=16;dashed=1;" parent="1" source="BhB_OIrB13sOwprm3m46-20" target="BhB_OIrB13sOwprm3m46-2" edge="1">
          <mxGeometry relative="1" as="geometry" />
        </mxCell>
        <mxCell id="BhB_OIrB13sOwprm3m46-20" value="User" style="shape=umlActor;verticalLabelPosition=bottom;verticalAlign=top;html=1;outlineConnect=0;sketch=1;hachureGap=4;jiggle=2;curveFitting=1;fontFamily=Architects Daughter;fontSource=https%3A%2F%2Ffonts.googleapis.com%2Fcss%3Ffamily%3DArchitects%2BDaughter;fontSize=20;" parent="1" vertex="1">
          <mxGeometry x="80" y="400" width="30" height="60" as="geometry" />
        </mxCell>
        <mxCell id="BhB_OIrB13sOwprm3m46-45" value="&lt;span style=&quot;font-size: 16px;&quot;&gt;Configure&lt;/span&gt;" style="text;html=1;strokeColor=none;fillColor=none;align=center;verticalAlign=middle;whiteSpace=wrap;rounded=0;fontSize=20;fontFamily=Architects Daughter;fontColor=#E5CCFF;" parent="1" vertex="1">
          <mxGeometry x="590" y="571" width="60" height="30" as="geometry" />
        </mxCell>
        <mxCell id="YGRjid9swvJ--D3n12rC-2" value="Settings" style="swimlane;fontStyle=0;childLayout=stackLayout;horizontal=1;startSize=30;horizontalStack=0;resizeParent=1;resizeParentMax=0;resizeLast=0;collapsible=1;marginBottom=0;whiteSpace=wrap;html=1;sketch=1;hachureGap=4;jiggle=2;curveFitting=1;fontFamily=Architects Daughter;fontSource=https%3A%2F%2Ffonts.googleapis.com%2Fcss%3Ffamily%3DArchitects%2BDaughter;fontSize=16;fillStyle=solid;fillColor=#000000;" vertex="1" parent="1">
          <mxGeometry x="382.5" y="660" width="326" height="90" as="geometry" />
        </mxCell>
        <mxCell id="YGRjid9swvJ--D3n12rC-3" value="Proxy URL:&amp;nbsp;&lt;font style=&quot;font-size: 14px;&quot;&gt;https://open.powerdrill.ai&lt;/font&gt;" style="text;strokeColor=none;fillColor=none;align=left;verticalAlign=middle;spacingLeft=4;spacingRight=4;overflow=hidden;points=[[0,0.5],[1,0.5]];portConstraint=eastwest;rotatable=0;whiteSpace=wrap;html=1;fontSize=16;fontFamily=Architects Daughter;" vertex="1" parent="YGRjid9swvJ--D3n12rC-2">
          <mxGeometry y="30" width="326" height="30" as="geometry" />
        </mxCell>
        <mxCell id="YGRjid9swvJ--D3n12rC-4" value="Proxy Token:&amp;nbsp;&lt;font style=&quot;font-size: 14px;&quot;&gt;**********************&lt;/font&gt;" style="text;strokeColor=none;fillColor=none;align=left;verticalAlign=middle;spacingLeft=4;spacingRight=4;overflow=hidden;points=[[0,0.5],[1,0.5]];portConstraint=eastwest;rotatable=0;whiteSpace=wrap;html=1;fontSize=16;fontFamily=Architects Daughter;" vertex="1" parent="YGRjid9swvJ--D3n12rC-2">
          <mxGeometry y="60" width="326" height="30" as="geometry" />
        </mxCell>
        <mxCell id="YGRjid9swvJ--D3n12rC-6" value="Tool" style="text;html=1;strokeColor=none;fillColor=none;align=center;verticalAlign=middle;whiteSpace=wrap;rounded=0;fontSize=20;fontFamily=Architects Daughter;" vertex="1" parent="1">
          <mxGeometry x="680" y="420" width="60" height="30" as="geometry" />
        </mxCell>
        <mxCell id="YGRjid9swvJ--D3n12rC-7" value="Settings" style="swimlane;fontStyle=0;childLayout=stackLayout;horizontal=1;startSize=30;horizontalStack=0;resizeParent=1;resizeParentMax=0;resizeLast=0;collapsible=1;marginBottom=0;whiteSpace=wrap;html=1;sketch=1;hachureGap=4;jiggle=2;curveFitting=1;fontFamily=Architects Daughter;fontSource=https%3A%2F%2Ffonts.googleapis.com%2Fcss%3Ffamily%3DArchitects%2BDaughter;fontSize=16;fillStyle=solid;fillColor=#000000;" vertex="1" parent="1">
          <mxGeometry x="310" y="495" width="140" height="90" as="geometry" />
        </mxCell>
        <mxCell id="YGRjid9swvJ--D3n12rC-8" value="OpenAI URL" style="text;strokeColor=none;fillColor=none;align=left;verticalAlign=middle;spacingLeft=4;spacingRight=4;overflow=hidden;points=[[0,0.5],[1,0.5]];portConstraint=eastwest;rotatable=0;whiteSpace=wrap;html=1;fontSize=16;fontFamily=Architects Daughter;" vertex="1" parent="YGRjid9swvJ--D3n12rC-7">
          <mxGeometry y="30" width="140" height="30" as="geometry" />
        </mxCell>
        <mxCell id="YGRjid9swvJ--D3n12rC-9" value="OpenAI API Key" style="text;strokeColor=none;fillColor=none;align=left;verticalAlign=middle;spacingLeft=4;spacingRight=4;overflow=hidden;points=[[0,0.5],[1,0.5]];portConstraint=eastwest;rotatable=0;whiteSpace=wrap;html=1;fontSize=16;fontFamily=Architects Daughter;" vertex="1" parent="YGRjid9swvJ--D3n12rC-7">
          <mxGeometry y="60" width="140" height="30" as="geometry" />
        </mxCell>
        <mxCell id="YGRjid9swvJ--D3n12rC-15" style="edgeStyle=orthogonalEdgeStyle;rounded=0;sketch=1;hachureGap=4;jiggle=2;curveFitting=1;orthogonalLoop=1;jettySize=auto;html=1;fontFamily=Architects Daughter;fontSource=https%3A%2F%2Ffonts.googleapis.com%2Fcss%3Ffamily%3DArchitects%2BDaughter;fontSize=16;entryX=1;entryY=0.5;entryDx=0;entryDy=0;startArrow=classic;startFill=1;endArrow=none;endFill=0;" edge="1" parent="1" source="YGRjid9swvJ--D3n12rC-8" target="YGRjid9swvJ--D3n12rC-3">
          <mxGeometry relative="1" as="geometry" />
        </mxCell>
        <mxCell id="YGRjid9swvJ--D3n12rC-17" style="edgeStyle=orthogonalEdgeStyle;rounded=0;sketch=1;hachureGap=4;jiggle=2;curveFitting=1;orthogonalLoop=1;jettySize=auto;html=1;entryX=1;entryY=0.5;entryDx=0;entryDy=0;fontFamily=Architects Daughter;fontSource=https%3A%2F%2Ffonts.googleapis.com%2Fcss%3Ffamily%3DArchitects%2BDaughter;fontSize=16;startArrow=classic;startFill=1;endArrow=none;endFill=0;" edge="1" parent="1" source="YGRjid9swvJ--D3n12rC-9" target="YGRjid9swvJ--D3n12rC-4">
          <mxGeometry relative="1" as="geometry">
            <Array as="points">
              <mxPoint x="760" y="570" />
              <mxPoint x="760" y="735" />
            </Array>
          </mxGeometry>
        </mxCell>
      </root>
    </mxGraphModel>
  </diagram>
</mxfile>
